<svg version="1.0" xmlns="http://www.w3.org/2000/svg" width="736.000000pt" height="941.000000pt" viewBox="0 0 736.000000 941.000000" preserveAspectRatio="xMidYMid meet">

<g transform="translate(0.000000,941.000000) scale(0.100000,-0.100000)" fill="#959595" stroke="none">
<path d="M3700 9404 c-383 -23 -900 -102 -1280 -195 -91 -23 -261 -73 -379 -111 -213 -70 -213 -70 -228 -107 -236 -570 -412 -935 -575 -1186 -32 -49 -66 -114 -74 -142 -14 -47 -14 -59 1 -114 19 -76 63 -151 149 -251 121 -141 287 -265 517 -383 71 -37 129 -72 129 -79 -1 -6 -58 -54 -127 -106 -189 -142 -295 -233 -524 -452 -240 -229 -290 -285 -268 -299 20 -15 206 -2 322 22 54 11 169 42 255 69 188 59 273 74 367 65 147 -14 459 -81 518 -111 47 -24 493 -323 508 -340 18 -22 -1 -54 -51 -89 -60 -42 -111 -40 -215 9 -201 95 -515 221 -515 207 0 -9 119 -93 190 -134 25 -14 106 -46 180 -72 182 -63 361 -156 565 -293 339 -228 445 -326 445 -412 0 -93 -45 -84 -313 63 -84 46 -191 105 -239 131 -179 96 -618 253 -477 170 55 -33 280 -136 328 -150 53 -17 306 -147 451 -234 170 -101 256 -160 273 -190 31 -52 16 -114 -34 -141 -28 -15 -65 -1 -264 96 -273 134 -492 218 -794 305 -79 23 -151 44 -160 48 -13 5 -14 3 -3 -10 7 -9 59 -35 115 -58 121 -49 415 -196 577 -287 249 -140 280 -166 280 -228 0 -53 -23 -75 -76 -75 -61 0 -97 13 -446 161 -345 145 -626 255 -634 246 -14 -13 279 -169 436 -232 237 -94 289 -161 187 -239 -75 -57 -107 -52 -487 72 -215 70 -331 105 -618 182 -333 89 -452 151 -812 419 -74 56 -163 115 -198 132 -53 27 -69 31 -115 26 -66 -7 -222 -59 -249 -83 -25 -23 -102 -176 -153 -302 -63 -159 -119 -376 -152 -582 -25 -163 -25 -577 0 -740 58 -371 139 -631 296 -955 181 -373 352 -612 806 -1130 241 -274 336 -391 382 -467 76 -126 119 -325 110 -513 -7 -131 -23 -190 -76 -270 l-40 -60 2572 -3 c2049 -2 2574 1 2583 10 24 26 274 428 343 551 123 219 187 373 252 602 68 240 83 353 83 640 1 269 -4 320 -55 513 -94 358 -263 747 -534 1227 -123 218 -210 355 -225 355 -14 0 -137 -109 -405 -360 -337 -314 -449 -411 -655 -565 -128 -95 -267 -214 -420 -358 -142 -134 -241 -201 -451 -307 -206 -104 -611 -319 -789 -418 -229 -128 -421 -213 -620 -273 -107 -33 -431 -100 -590 -123 -258 -38 -655 -44 -1017 -15 -202 16 -251 36 -225 93 14 31 38 42 107 51 75 10 37 23 -103 34 -173 14 -215 43 -168 113 35 54 79 68 266 87 94 10 173 21 176 24 11 11 -59 16 -251 20 -145 3 -199 8 -227 20 -36 15 -38 19 -38 60 0 56 46 119 119 167 61 39 135 51 441 74 241 18 342 34 547 87 422 108 733 247 733 327 0 43 -42 42 -473 -19 -329 -46 -385 -49 -414 -16 -33 36 -44 82 -30 125 15 47 46 63 432 218 160 64 360 146 445 184 318 139 383 147 695 91 259 -47 382 -39 571 40 156 65 391 244 598 453 302 307 752 898 1076 1411 91 144 304 507 406 692 347 627 560 1323 669 2191 l26 203 -30 37 c-55 68 -255 259 -351 334 -331 259 -710 465 -1121 606 -271 94 -576 158 -939 197 -139 15 -672 27 -820 19z" fill="#959595"/>
</g>
</svg>