<svg version="1.0" xmlns="http://www.w3.org/2000/svg" width="512.000000pt" height="512.000000pt" viewBox="0 0 512.000000 512.000000" preserveAspectRatio="xMidYMid meet">

<g transform="translate(0.000000,512.000000) scale(0.100000,-0.100000)" fill="#978ce9" stroke="none">
<path d="M2370 5063 c-162 -16 -373 -61 -482 -104 -68 -26 -100 -57 -131 -127 -59 -132 -103 -332 -136 -625 -11 -93 -21 -170 -23 -172 -2 -1 -32 -17 -68 -35 -130 -65 -238 -208 -275 -361 -22 -96 -22 -2002 0 -2098 35 -146 147 -292 276 -360 35 -19 66 -35 68 -37 1 -1 9 -65 17 -141 38 -367 97 -613 176 -730 23 -35 40 -46 106 -72 90 -34 243 -74 357 -92 131 -21 398 -16 549 10 139 24 306 70 367 102 97 49 169 280 225 721 14 112 26 203 27 204 1 1 30 16 65 34 81 43 189 155 231 241 57 117 61 154 61 687 l0 482 63 0 c36 0 68 5 75 12 17 17 17 509 0 526 -7 7 -40 12 -80 12 l-68 0 0 203 c0 246 -9 308 -60 416 -50 103 -144 202 -238 250 -34 17 -62 35 -62 39 -1 32 -34 301 -50 397 -40 246 -102 429 -162 480 -33 28 -204 85 -323 109 -159 31 -363 43 -505 29z m950 -1294 c55 -25 114 -80 143 -134 l22 -40 0 -995 c0 -923 -1 -998 -17 -1033 -30 -67 -76 -114 -140 -146 l-61 -31 -766 0 -766 0 -50 24 c-64 30 -112 78 -141 141 l-24 50 0 981 c0 718 3 990 12 1015 27 80 90 144 173 176 22 8 236 12 800 12 753 1 771 0 815 -20z" fill="#978ce9"/>
<path d="M2757 3159 c-81 -19 -153 -69 -217 -150 l-38 -48 -32 46 c-42 58 -135 126 -194 143 -73 20 -181 9 -258 -27 -172 -80 -240 -223 -189 -392 42 -139 174 -305 495 -622 l179 -178 107 100 c198 184 407 416 488 542 101 155 123 279 69 389 -47 96 -152 171 -275 197 -60 13 -82 13 -135 0z" fill="#978ce9"/>
</g>
</svg>